<?xml version="1.0" encoding="UTF-8" standalone="no"?>
<!DOCTYPE svg PUBLIC "-//W3C//DTD SVG 1.1//EN" "http://www.w3.org/Graphics/SVG/1.1/DTD/svg11.dtd">
<svg xmlns="http://www.w3.org/2000/svg" version="1.1" viewBox="0.00 0.00 1254.00 1254.00">
<g>
<path fill="#000000" d="
  M 433.27 623.85
  C 436.06 627.89 440.82 629.01 445.50 629.10
  Q 451.18 629.19 457.32 628.94
  C 467.38 628.52 475.79 630.91 479.75 640.47
  Q 482.12 646.19 479.96 653.32
  Q 475.95 666.53 451.90 742.52
  Q 446.68 759.02 442.49 772.00
  Q 439.98 779.76 437.68 782.68
  Q 432.53 789.21 424.73 792.08
  Q 421.19 793.39 413.64 793.39
  Q 400.48 793.38 398.14 793.36
  Q 391.33 793.30 388.04 794.73
  Q 381.20 797.70 377.21 802.82
  Q 374.73 806.00 372.37 814.21
  Q 370.50 820.70 370.08 822.19
  Q 368.53 827.68 367.20 829.94
  Q 362.17 838.51 352.61 841.93
  C 346.20 844.23 338.89 843.44 329.88 843.34
  Q 323.42 843.27 320.18 844.19
  Q 312.10 846.51 307.13 853.80
  C 304.89 857.08 303.59 862.52 302.54 866.53
  C 299.25 879.18 288.73 886.97 275.75 886.96
  Q 180.92 886.84 156.79 886.96
  Q 145.56 887.02 141.99 885.49
  C 132.86 881.60 128.84 871.84 131.73 862.48
  Q 133.92 855.39 139.37 839.38
  C 141.91 831.91 141.63 823.98 133.77 820.08
  Q 130.67 818.54 124.48 818.73
  Q 123.40 818.77 107.29 818.83
  Q 97.43 818.87 93.53 817.16
  Q 86.09 813.90 83.29 805.57
  C 81.32 799.67 83.07 794.80 85.20 788.09
  Q 120.67 676.32 121.11 674.64
  Q 123.39 665.91 126.73 661.51
  Q 132.62 653.72 141.44 650.86
  Q 145.47 649.55 152.68 649.57
  Q 163.59 649.61 164.06 649.63
  C 176.08 650.10 185.24 647.86 190.19 636.72
  Q 190.66 635.65 194.19 624.29
  Q 195.72 619.40 195.53 616.59
  C 195.19 611.37 192.17 606.74 187.06 605.13
  Q 184.60 604.35 179.84 604.37
  Q 171.90 604.39 169.76 604.45
  C 160.28 604.72 152.11 601.70 148.14 592.71
  C 145.68 587.14 146.37 582.35 148.33 576.02
  Q 157.86 545.16 173.78 490.06
  Q 176.59 480.35 179.08 476.76
  Q 184.81 468.51 194.84 465.51
  C 200.21 463.90 206.29 464.50 213.09 464.57
  Q 219.09 464.64 220.40 464.38
  Q 229.45 462.63 234.55 455.99
  Q 237.04 452.75 239.88 442.07
  Q 242.18 433.38 242.43 432.38
  C 244.98 422.23 250.50 414.85 260.41 411.23
  Q 264.80 409.62 274.25 409.66
  Q 287.28 409.70 288.31 409.74
  Q 295.84 410.02 299.55 408.58
  Q 306.81 405.75 311.11 400.02
  Q 313.43 396.94 315.54 389.20
  Q 318.83 377.07 319.14 375.90
  Q 321.64 366.39 323.74 362.99
  Q 328.97 354.52 338.71 351.20
  Q 343.26 349.65 353.01 349.71
  Q 389.78 349.90 437.09 349.70
  Q 445.15 349.67 448.72 350.96
  C 457.84 354.28 462.72 363.40 460.24 372.75
  Q 458.11 380.74 455.60 388.49
  C 453.02 396.46 453.29 404.63 461.46 408.38
  Q 464.95 409.98 473.72 409.81
  Q 487.96 409.54 502.13 409.77
  C 516.63 410.02 526.34 422.73 522.35 436.62
  C 517.99 451.82 514.02 466.73 509.55 481.86
  Q 489.97 548.19 488.74 552.56
  Q 485.32 564.70 482.36 568.73
  Q 476.55 576.62 466.77 579.05
  C 463.08 579.96 458.05 579.30 454.82 579.75
  Q 441.18 581.67 436.62 594.06
  Q 435.84 596.20 433.25 604.78
  C 430.92 612.52 429.18 617.92 433.27 623.85
  Z
  M 411.66 485.83
  C 410.99 479.09 405.14 473.19 398.47 473.18
  Q 361.43 473.11 321.49 473.17
  C 312.21 473.18 303.50 478.44 298.38 485.93
  Q 296.35 488.89 293.59 498.53
  Q 284.24 531.17 276.81 554.05
  Q 274.97 559.71 274.88 562.17
  C 274.64 568.99 277.90 574.70 284.10 577.23
  Q 287.20 578.50 294.52 578.48
  Q 317.11 578.40 361.51 578.45
  Q 369.41 578.46 372.87 577.20
  Q 381.18 574.18 387.05 566.82
  Q 389.76 563.41 393.59 549.94
  Q 393.86 549.00 410.04 495.30
  Q 411.96 488.90 411.66 485.83
  Z
  M 287.75 767.81
  Q 290.45 767.81 305.65 767.80
  Q 317.56 767.80 321.17 766.45
  Q 329.17 763.45 334.69 756.45
  Q 337.12 753.36 339.98 744.13
  Q 352.54 703.47 358.38 684.91
  Q 359.92 680.01 359.82 677.02
  C 359.58 670.27 354.71 665.28 348.45 664.02
  Q 346.74 663.67 337.95 663.66
  Q 312.54 663.64 287.30 663.68
  Q 284.60 663.68 269.39 663.69
  Q 257.49 663.69 253.88 665.04
  Q 245.88 668.04 240.36 675.04
  Q 237.93 678.13 235.07 687.36
  Q 222.51 728.02 216.67 746.58
  Q 215.13 751.48 215.23 754.47
  C 215.47 761.22 220.34 766.21 226.60 767.47
  Q 228.31 767.82 237.10 767.83
  Q 262.50 767.85 287.75 767.81
  Z"
/>
<path fill="#000000" d="
  M 939.15 430.79
  A 12.97 12.96 -35.4 0 1 938.46 434.84
  C 934.74 445.77 931.57 456.74 927.95 467.86
  Q 905.31 537.51 878.31 618.12
  Q 846.55 712.94 846.20 714.00
  Q 828.31 766.87 826.74 771.56
  Q 824.01 779.70 821.59 782.75
  Q 816.24 789.49 808.17 792.19
  Q 803.66 793.69 794.77 793.44
  Q 792.49 793.37 782.44 793.36
  Q 774.11 793.36 770.29 794.91
  C 757.54 800.07 755.96 809.53 752.27 821.96
  C 749.40 831.64 744.11 838.60 734.39 842.07
  C 728.41 844.20 718.98 843.43 713.28 843.33
  C 704.34 843.18 697.94 845.81 692.52 852.40
  C 688.05 857.83 688.19 864.82 684.88 871.51
  Q 677.24 886.96 658.02 886.95
  Q 597.31 886.92 553.09 886.94
  Q 545.10 886.95 542.06 885.95
  C 534.95 883.63 530.36 878.03 529.95 870.41
  Q 529.74 866.42 531.87 860.88
  Q 539.10 842.05 541.29 836.56
  Q 544.41 828.76 539.59 822.66
  C 536.31 818.50 530.96 818.67 525.07 818.75
  Q 523.83 818.76 508.14 818.84
  Q 498.21 818.88 494.55 817.43
  C 486.94 814.42 482.76 807.50 482.95 799.07
  Q 483.02 795.92 485.17 789.86
  Q 503.39 738.40 522.49 680.75
  Q 553.89 585.95 584.69 490.40
  Q 588.19 479.54 590.83 476.01
  Q 597.45 467.14 608.77 464.92
  C 614.89 463.73 626.01 465.17 631.74 464.57
  Q 642.21 463.48 647.87 456.39
  Q 650.22 453.44 652.45 446.02
  Q 656.04 434.09 656.20 433.50
  Q 658.35 425.36 660.89 421.99
  C 666.77 414.20 675.19 410.33 685.00 410.36
  Q 701.75 410.41 706.06 410.47
  Q 713.71 410.58 717.28 409.15
  Q 723.32 406.75 727.80 401.35
  Q 730.49 398.12 732.77 389.37
  Q 732.99 388.49 737.60 372.98
  Q 740.10 364.55 742.40 361.46
  Q 747.76 354.29 756.08 351.32
  Q 760.10 349.89 773.09 349.90
  Q 835.99 349.94 859.74 350.02
  C 870.31 350.06 879.09 357.22 878.83 368.21
  Q 878.77 370.85 877.12 376.20
  Q 873.22 388.87 872.82 390.01
  C 870.17 397.52 870.74 405.26 878.50 408.75
  Q 881.45 410.08 891.15 409.85
  Q 893.06 409.80 915.47 409.75
  Q 922.97 409.73 926.68 411.11
  Q 939.30 415.80 939.15 430.79
  Z
  M 661.58 633.09
  C 666.13 634.40 670.29 631.39 673.48 628.22
  C 678.89 622.86 682.50 619.57 688.94 614.74
  Q 699.92 606.51 703.25 603.24
  Q 715.17 591.55 724.94 582.90
  Q 728.03 580.16 731.28 577.87
  C 736.42 574.23 741.63 570.34 746.98 565.15
  C 757.24 555.19 770.00 546.56 780.17 538.02
  Q 794.32 526.14 809.42 511.67
  Q 815.47 505.87 818.49 497.49
  C 820.64 491.53 822.57 488.17 821.04 482.88
  C 819.11 476.20 813.60 473.17 806.50 473.17
  Q 733.02 473.13 732.75 473.13
  C 721.24 473.13 709.62 480.53 705.59 491.08
  Q 692.42 525.52 657.22 621.48
  C 655.78 625.41 656.78 631.71 661.58 633.09
  Z
  M 763.58 616.19
  C 759.44 615.42 754.54 619.15 751.70 621.70
  Q 744.37 628.28 735.72 636.97
  C 728.15 644.57 717.70 653.72 705.64 662.77
  Q 691.21 673.60 679.51 685.40
  C 675.91 689.04 671.39 693.05 667.99 695.66
  Q 654.44 706.03 620.54 734.28
  Q 613.49 740.15 610.09 746.46
  C 607.41 751.44 606.35 757.45 609.46 761.90
  Q 613.22 767.29 620.59 767.36
  Q 641.71 767.57 697.36 767.42
  Q 705.13 767.40 708.60 766.16
  Q 716.64 763.28 722.19 756.67
  Q 725.32 752.95 729.39 741.92
  Q 755.48 671.11 769.48 629.50
  C 771.30 624.07 770.13 617.40 763.58 616.19
  Z"
/>
<path fill="#000000" d="
  M 1069.81 750.06
  C 1071.40 745.07 1069.68 739.42 1064.20 737.84
  C 1058.41 736.17 1051.14 739.51 1047.26 744.28
  Q 1045.94 745.89 1044.17 751.26
  Q 1030.05 793.88 1028.62 798.89
  Q 1026.59 806.03 1023.91 809.23
  C 1018.22 816.03 1011.48 818.95 1002.26 818.71
  Q 1001.93 818.70 989.75 818.76
  C 985.02 818.79 981.65 818.83 977.83 816.95
  Q 969.79 812.98 969.01 803.69
  Q 968.73 800.40 970.81 794.10
  Q 979.31 768.29 984.09 753.24
  Q 986.18 746.66 985.38 744.08
  C 982.96 736.32 974.22 736.29 968.14 739.74
  Q 962.15 743.13 960.02 749.78
  Q 943.82 800.43 923.67 861.44
  Q 921.24 868.80 919.30 871.51
  C 914.43 878.30 907.13 882.38 898.52 882.39
  Q 865.21 882.42 849.23 882.40
  C 840.23 882.38 832.76 876.75 831.96 867.78
  Q 831.61 863.95 833.57 858.42
  Q 835.65 852.50 836.64 848.76
  C 838.97 839.90 844.10 833.34 852.38 830.15
  Q 853.36 829.77 858.71 828.73
  Q 864.42 827.62 868.02 823.25
  Q 870.18 820.62 872.54 813.30
  Q 897.24 736.60 899.15 730.14
  Q 901.75 721.32 904.55 717.91
  C 909.53 711.85 915.89 708.44 923.60 708.23
  Q 927.83 708.11 929.29 707.60
  Q 939.19 704.12 942.02 695.05
  Q 946.66 680.18 947.10 678.54
  Q 949.06 671.35 951.71 667.73
  Q 959.05 657.73 972.77 657.45
  Q 981.90 657.25 996.49 657.52
  Q 1005.69 657.68 1010.30 664.44
  C 1015.23 671.67 1011.05 680.19 1008.87 687.51
  A 6.27 5.76 57.8 0 0 1008.66 688.66
  C 1007.84 698.71 1014.75 700.44 1023.57 700.37
  C 1036.48 700.27 1045.04 701.48 1051.97 692.34
  C 1054.95 688.42 1055.91 682.89 1057.57 677.15
  C 1060.14 668.29 1065.01 662.01 1073.89 658.88
  Q 1078.90 657.12 1089.35 657.38
  Q 1098.40 657.61 1102.15 657.46
  Q 1110.57 657.13 1114.74 658.78
  C 1125.36 662.97 1126.05 673.41 1122.48 682.94
  Q 1120.83 687.36 1119.00 693.46
  Q 1116.27 702.61 1123.35 706.60
  C 1125.74 707.95 1129.37 707.88 1131.77 708.71
  C 1141.13 711.95 1143.73 721.42 1140.75 730.03
  Q 1131.86 755.77 1120.71 786.74
  Q 1114.38 804.31 1109.47 815.98
  C 1107.86 819.81 1107.61 823.94 1110.43 827.19
  Q 1110.92 827.76 1115.32 829.55
  C 1124.87 833.42 1124.07 842.80 1120.86 851.38
  Q 1118.45 857.81 1117.20 862.64
  C 1113.87 875.54 1103.39 882.89 1089.81 882.46
  Q 1086.14 882.34 1052.17 882.50
  Q 1044.57 882.53 1041.53 881.23
  C 1035.65 878.70 1032.19 873.03 1031.96 866.77
  Q 1031.87 864.22 1033.49 859.52
  Q 1052.11 805.63 1069.81 750.06
  Z"
/>
<path fill="#000000" d="
  M 1176.50 883.49
  Q 1155.66 883.47 1154.13 883.45
  C 1144.40 883.34 1137.43 877.13 1136.71 867.42
  Q 1136.50 864.65 1138.26 859.44
  Q 1140.60 852.46 1142.49 845.70
  Q 1145.34 835.53 1147.50 832.34
  Q 1153.11 824.09 1162.58 821.40
  C 1166.59 820.26 1171.98 820.62 1176.87 820.63
  Q 1197.71 820.65 1199.23 820.67
  C 1208.97 820.78 1215.94 826.99 1216.66 836.70
  Q 1216.87 839.47 1215.11 844.68
  Q 1212.77 851.66 1210.88 858.42
  Q 1208.03 868.59 1205.87 871.78
  Q 1200.26 880.03 1190.78 882.72
  C 1186.78 883.86 1181.39 883.50 1176.50 883.49
  Z"
/>
</g>
</svg>
